<svg width="565" height="412" viewBox="0 0 565 412" fill="none" xmlns="http://www.w3.org/2000/svg">
<path d="M58.7129 387.15C58.7129 388.885 58.4844 390.426 58.0273 391.773C57.582 393.109 56.9668 394.275 56.1816 395.271C55.3965 396.268 54.4648 397.105 53.3867 397.785C52.3203 398.465 51.1602 399.016 49.9062 399.438C48.6641 399.859 47.3574 400.158 45.9863 400.334C44.627 400.521 43.2559 400.615 41.873 400.615C40.4551 400.615 38.7676 400.568 36.8105 400.475C34.8652 400.393 32.6855 400.234 30.2715 400L31.6074 393.549C32.4512 393.771 33.3359 393.965 34.2617 394.129C35.1875 394.281 36.1016 394.404 37.0039 394.498L35.8965 380.893C35.1699 381.033 34.4316 381.186 33.6816 381.35C32.9316 381.514 32.1582 381.695 31.3613 381.895L30.2715 376.27C31.5957 375.871 32.9023 375.549 34.1914 375.303C35.4805 375.057 36.6992 374.875 37.8477 374.758C38.9961 374.629 40.0449 374.547 40.9941 374.512C41.9551 374.465 42.7637 374.441 43.4199 374.441C45.6348 374.441 47.6738 374.676 49.5371 375.145C51.4121 375.602 53.0293 376.34 54.3887 377.359C55.748 378.367 56.8086 379.68 57.5703 381.297C58.332 382.902 58.7129 384.854 58.7129 387.15ZM44.4922 394.92C46.3789 394.92 48.0312 394.691 49.4492 394.234C50.8789 393.777 52.0684 393.191 53.0176 392.477C53.9785 391.75 54.6992 390.947 55.1797 390.068C55.6602 389.178 55.9004 388.299 55.9004 387.432C55.9004 386.576 55.7539 385.715 55.4609 384.848C55.1797 383.969 54.6992 383.172 54.0195 382.457C53.3398 381.742 52.4375 381.145 51.3125 380.664C50.1992 380.184 48.8164 379.908 47.1641 379.838C46.6836 379.814 46.127 379.814 45.4941 379.838C44.9551 379.861 44.3047 379.896 43.543 379.943C42.7812 379.99 41.9258 380.066 40.9766 380.172L40.3262 394.779C40.9238 394.826 41.4746 394.861 41.9785 394.885C42.4941 394.896 42.9395 394.908 43.3145 394.92C43.748 394.932 44.1406 394.932 44.4922 394.92ZM72.0371 396.607L71.7031 400.404L59.6445 400.316V397.117L63.2832 396.977L63.0371 377.395L59.293 377.535V374.688L69.1543 374.107L68.6094 384.637C69.4883 383.922 70.3496 383.389 71.1934 383.037C72.0488 382.686 72.8047 382.439 73.4609 382.299C74.2344 382.135 74.9727 382.07 75.6758 382.105C76.8477 382.105 77.8438 382.27 78.6641 382.598C79.4961 382.914 80.1641 383.371 80.668 383.969C81.1836 384.555 81.5586 385.258 81.793 386.078C82.0273 386.898 82.1445 387.807 82.1445 388.803C82.1445 390.338 82.0742 391.791 81.9336 393.162C81.8047 394.521 81.623 395.84 81.3887 397.117L85.1328 396.906L84.6406 400.404L75.1309 400.035C75.2598 398.98 75.3828 397.979 75.5 397.029C75.6289 396.068 75.7402 395.143 75.834 394.252C75.9395 393.35 76.0215 392.477 76.0801 391.633C76.1387 390.777 76.168 389.928 76.168 389.084C76.168 388.557 76.127 388.064 76.0449 387.607C75.9629 387.139 75.8223 386.734 75.623 386.395C75.4238 386.055 75.1543 385.785 74.8145 385.586C74.4863 385.375 74.0762 385.258 73.584 385.234C73.1387 385.258 72.6465 385.363 72.1074 385.551C71.6504 385.715 71.1113 385.979 70.4902 386.342C69.8691 386.693 69.1953 387.203 68.4688 387.871L67.9941 396.801L72.0371 396.607ZM100.689 395.975V398.928L87.1543 400.65L86.6445 396.15L91.1445 396.115L91.3555 386.359L85.8887 385.955V382.967L97.2617 381.965L96.6816 385.885C96.9395 385.615 97.2793 385.305 97.7012 384.953C98.123 384.59 98.5859 384.227 99.0898 383.863C99.6055 383.488 100.15 383.113 100.725 382.738C101.311 382.363 101.896 382.023 102.482 381.719C103.068 381.402 103.643 381.133 104.205 380.91C104.779 380.676 105.307 380.512 105.787 380.418L106.262 386.254C104.574 386.254 103.121 386.4 101.902 386.693C100.695 386.986 99.6875 387.309 98.8789 387.66C97.9414 388.07 97.1504 388.533 96.5059 389.049L95.2754 396.045L100.689 395.975ZM132.207 400.404H122.697L122.926 397.521C122.035 398.225 121.162 398.764 120.307 399.139C119.463 399.514 118.707 399.789 118.039 399.965C117.254 400.176 116.504 400.293 115.789 400.316C114.676 400.316 113.75 400.176 113.012 399.895C112.273 399.602 111.682 399.197 111.236 398.682C110.803 398.154 110.492 397.527 110.305 396.801C110.117 396.062 110.023 395.242 110.023 394.34C110.023 393.859 110.029 393.438 110.041 393.074C110.053 392.711 110.07 392.365 110.094 392.037C110.129 391.697 110.164 391.352 110.199 391C110.246 390.648 110.299 390.244 110.357 389.787C110.428 389.33 110.498 388.803 110.568 388.205C110.65 387.596 110.744 386.869 110.85 386.025L107.105 386.254L107.65 382.035L116.334 382.404C116.193 383.705 116.07 384.836 115.965 385.797C115.859 386.746 115.766 387.572 115.684 388.275C115.613 388.979 115.549 389.576 115.49 390.068C115.443 390.561 115.402 391 115.367 391.387C115.332 391.762 115.309 392.102 115.297 392.406C115.285 392.699 115.279 393.01 115.279 393.338C115.279 393.865 115.32 394.363 115.402 394.832C115.484 395.301 115.625 395.711 115.824 396.062C116.035 396.414 116.305 396.689 116.633 396.889C116.973 397.088 117.389 397.188 117.881 397.188C118.49 397.152 119.111 396.982 119.744 396.678C120.283 396.42 120.857 396.016 121.467 395.465C122.088 394.914 122.68 394.123 123.242 393.092L123.787 385.674L119.814 385.814L120.184 382.035L132.207 382.475V385.305L128.217 385.498L128.428 396.977L132.207 397.293V400.404ZM141.77 393.232C141.77 393.865 141.857 394.416 142.033 394.885C142.221 395.354 142.473 395.746 142.789 396.062C143.105 396.367 143.475 396.596 143.896 396.748C144.33 396.9 144.793 396.977 145.285 396.977C145.777 396.977 146.293 396.9 146.832 396.748C147.371 396.596 147.904 396.367 148.432 396.062C148.959 395.758 149.475 395.377 149.979 394.92C150.482 394.463 150.951 393.936 151.385 393.338C151.502 393.76 151.625 394.223 151.754 394.727C151.871 395.16 152 395.664 152.141 396.238C152.293 396.801 152.457 397.404 152.633 398.049C151.93 398.576 151.238 399.01 150.559 399.35C149.879 399.689 149.217 399.959 148.572 400.158C147.939 400.357 147.33 400.492 146.744 400.562C146.158 400.645 145.613 400.686 145.109 400.686C143.797 400.686 142.684 400.51 141.77 400.158C140.867 399.818 140.111 399.35 139.502 398.752C138.904 398.143 138.436 397.434 138.096 396.625C137.768 395.805 137.521 394.926 137.357 393.988C137.193 393.039 137.094 392.055 137.059 391.035C137.023 390.004 137.006 388.984 137.006 387.977C137.006 387.719 137.012 387.426 137.023 387.098C137.035 386.77 137.053 386.424 137.076 386.061L132.875 386.184L133.227 382.51L137.48 382.176C137.598 381.18 137.721 380.207 137.85 379.258C137.99 378.309 138.113 377.453 138.219 376.691C138.348 375.801 138.471 374.957 138.588 374.16L144.283 374.582C144.143 375.215 144.002 375.906 143.861 376.656C143.732 377.301 143.586 378.057 143.422 378.924C143.27 379.779 143.111 380.711 142.947 381.719L150.576 381.104L150.471 385.639L142.332 385.885C142.156 387.197 142.016 388.48 141.91 389.734C141.816 390.977 141.77 392.143 141.77 393.232ZM167.803 396.01L167.223 400.51L154.109 400.141L153.547 396.941L158.873 396.607L158.838 386.57L153.354 386.395V383.582L164.41 382.861L163.074 396.326L167.803 396.01ZM164.41 378.73C164.41 379.012 164.322 379.281 164.146 379.539C163.982 379.785 163.754 380.002 163.461 380.189C163.168 380.377 162.822 380.529 162.424 380.646C162.037 380.752 161.621 380.805 161.176 380.805C160.719 380.805 160.291 380.752 159.893 380.646C159.506 380.529 159.166 380.377 158.873 380.189C158.58 380.002 158.346 379.785 158.17 379.539C158.006 379.281 157.924 379.012 157.924 378.73C157.924 378.438 158.006 378.162 158.17 377.904C158.346 377.635 158.58 377.406 158.873 377.219C159.166 377.031 159.506 376.885 159.893 376.779C160.291 376.662 160.719 376.604 161.176 376.604C161.621 376.604 162.037 376.662 162.424 376.779C162.822 376.885 163.168 377.031 163.461 377.219C163.754 377.406 163.982 377.635 164.146 377.904C164.322 378.162 164.41 378.438 164.41 378.73ZM193.203 396.186L192.693 400.404L183.658 400.035C183.799 398.664 183.922 397.486 184.027 396.502C184.133 395.518 184.221 394.68 184.291 393.988C184.373 393.285 184.438 392.699 184.484 392.23C184.543 391.75 184.584 391.334 184.607 390.982C184.643 390.619 184.666 390.291 184.678 389.998C184.689 389.705 184.695 389.389 184.695 389.049C184.695 388.521 184.631 388.029 184.502 387.572C184.385 387.104 184.203 386.693 183.957 386.342C183.711 385.99 183.4 385.715 183.025 385.516C182.662 385.305 182.234 385.188 181.742 385.164C181.449 385.199 181.121 385.281 180.758 385.41C180.453 385.516 180.084 385.674 179.65 385.885C179.229 386.084 178.754 386.371 178.227 386.746L177.506 396.801L181.461 396.607L181.145 400.404L169.068 400.316V397.117L172.707 396.977L172.461 385.92L168.717 386.025V382.826L178.578 381.561L178.402 383.828C179.129 383.418 179.814 383.102 180.459 382.879C181.115 382.656 181.695 382.48 182.199 382.352C182.785 382.223 183.33 382.129 183.834 382.07C185.123 382.07 186.195 382.264 187.051 382.65C187.906 383.037 188.586 383.576 189.09 384.268C189.875 383.74 190.637 383.33 191.375 383.037C192.113 382.744 192.77 382.527 193.344 382.387C194.012 382.223 194.645 382.117 195.242 382.07C196.414 382.07 197.41 382.229 198.23 382.545C199.051 382.861 199.713 383.307 200.217 383.881C200.732 384.443 201.107 385.129 201.342 385.938C201.576 386.734 201.693 387.619 201.693 388.592C201.693 388.99 201.688 389.348 201.676 389.664C201.664 389.969 201.641 390.273 201.605 390.578C201.582 390.871 201.547 391.182 201.5 391.51C201.465 391.838 201.418 392.225 201.359 392.67C201.301 393.115 201.23 393.637 201.148 394.234C201.066 394.832 200.973 395.553 200.867 396.396L204.646 396.186L204.102 400.404L195.066 400.035C195.207 398.664 195.33 397.486 195.436 396.502C195.541 395.518 195.629 394.68 195.699 393.988C195.781 393.285 195.846 392.699 195.893 392.23C195.951 391.75 195.992 391.334 196.016 390.982C196.051 390.619 196.074 390.291 196.086 389.998C196.098 389.705 196.104 389.389 196.104 389.049C196.104 388.521 196.039 388.029 195.91 387.572C195.793 387.104 195.611 386.693 195.365 386.342C195.131 385.99 194.826 385.715 194.451 385.516C194.088 385.305 193.66 385.188 193.168 385.164C192.922 385.199 192.641 385.275 192.324 385.393C192.055 385.486 191.727 385.627 191.34 385.814C190.965 386.002 190.537 386.254 190.057 386.57C190.186 387.215 190.25 387.877 190.25 388.557C190.25 388.967 190.244 389.33 190.232 389.646C190.221 389.963 190.197 390.273 190.162 390.578C190.139 390.871 190.104 391.182 190.057 391.51C190.021 391.826 189.975 392.207 189.916 392.652C189.857 393.098 189.787 393.625 189.705 394.234C189.635 394.832 189.553 395.553 189.459 396.396L193.203 396.186ZM227.762 397.979L226.865 401.23L218.129 400.58C218.152 400.404 218.182 400.211 218.217 400C218.252 399.789 218.287 399.59 218.322 399.402C218.369 399.191 218.41 398.98 218.445 398.77C217.426 399.332 216.395 399.73 215.352 399.965C214.309 400.199 213.289 400.316 212.293 400.316C211.566 400.316 210.811 400.252 210.025 400.123C209.24 399.994 208.52 399.771 207.863 399.455C207.219 399.127 206.686 398.699 206.264 398.172C205.842 397.633 205.631 396.959 205.631 396.15C205.631 395.295 205.824 394.557 206.211 393.936C206.598 393.314 207.107 392.787 207.74 392.354C208.373 391.908 209.088 391.551 209.885 391.281C210.693 391.012 211.508 390.801 212.328 390.648C213.16 390.484 213.969 390.379 214.754 390.332C215.539 390.273 216.23 390.244 216.828 390.244C217.461 390.244 218.029 390.262 218.533 390.297C219.037 390.32 219.488 390.361 219.887 390.42C220.027 389.564 220.098 388.75 220.098 387.977C220.098 387.414 220.021 386.904 219.869 386.447C219.729 385.99 219.477 385.609 219.113 385.305C218.762 385 218.287 384.771 217.689 384.619C217.104 384.467 216.371 384.408 215.492 384.443C214.906 384.502 214.367 384.666 213.875 384.936C213.664 385.053 213.447 385.199 213.225 385.375C213.014 385.551 212.809 385.762 212.609 386.008C212.422 386.254 212.252 386.547 212.1 386.887C211.947 387.215 211.83 387.59 211.748 388.012L206.07 388.293C206.152 387.484 206.357 386.77 206.686 386.148C207.014 385.516 207.412 384.971 207.881 384.514C208.361 384.045 208.889 383.646 209.463 383.318C210.037 382.99 210.617 382.715 211.203 382.492C212.586 381.988 214.127 381.678 215.826 381.561C217.35 381.537 218.639 381.684 219.693 382C220.76 382.305 221.639 382.721 222.33 383.248C223.021 383.764 223.561 384.35 223.947 385.006C224.334 385.662 224.615 386.318 224.791 386.975C224.967 387.619 225.066 388.234 225.09 388.82C225.113 389.395 225.119 389.869 225.107 390.244C225.072 390.701 224.99 391.275 224.861 391.967C224.756 392.564 224.598 393.314 224.387 394.217C224.188 395.119 223.912 396.197 223.561 397.451L227.762 397.979ZM219.482 392.793C219.213 392.77 218.92 392.752 218.604 392.74C218.287 392.729 217.959 392.723 217.619 392.723C217.326 392.723 216.963 392.734 216.529 392.758C216.107 392.781 215.662 392.828 215.193 392.898C214.725 392.957 214.256 393.045 213.787 393.162C213.318 393.279 212.896 393.432 212.521 393.619C212.158 393.807 211.859 394.035 211.625 394.305C211.391 394.574 211.273 394.891 211.273 395.254C211.273 395.535 211.355 395.805 211.52 396.062C211.695 396.309 211.93 396.52 212.223 396.695C212.516 396.871 212.855 397 213.242 397.082C213.641 397.152 214.057 397.152 214.49 397.082C215.369 396.918 216.195 396.719 216.969 396.484C217.754 396.238 218.428 396.004 218.99 395.781C219.084 395.289 219.172 394.791 219.254 394.287C219.336 393.783 219.412 393.285 219.482 392.793ZM241.016 396.607L240.699 400.404L228.623 400.316V397.117L232.262 396.977L232.016 385.92L228.271 386.025V382.826L238.133 381.561L237.887 384.918C238.742 384.25 239.586 383.734 240.418 383.371C241.262 382.996 242.018 382.709 242.686 382.51C243.471 382.287 244.221 382.141 244.936 382.07C246.096 382.07 247.08 382.229 247.889 382.545C248.709 382.85 249.371 383.289 249.875 383.863C250.391 384.426 250.766 385.105 251 385.902C251.234 386.699 251.352 387.584 251.352 388.557C251.352 388.967 251.346 389.33 251.334 389.646C251.322 389.963 251.299 390.273 251.264 390.578C251.24 390.871 251.205 391.182 251.158 391.51C251.123 391.826 251.076 392.207 251.018 392.652C250.959 393.098 250.889 393.625 250.807 394.234C250.736 394.832 250.654 395.553 250.561 396.396L254.305 396.186L253.795 400.404L244.391 400.035C244.531 398.664 244.654 397.486 244.76 396.502C244.865 395.518 244.959 394.68 245.041 393.988C245.123 393.285 245.188 392.699 245.234 392.23C245.281 391.75 245.322 391.334 245.357 390.982C245.393 390.619 245.416 390.291 245.428 389.998C245.439 389.705 245.445 389.389 245.445 389.049C245.445 388.521 245.404 388.029 245.322 387.572C245.24 387.104 245.094 386.693 244.883 386.342C244.684 385.99 244.414 385.715 244.074 385.516C243.746 385.305 243.336 385.188 242.844 385.164C242.398 385.223 241.906 385.363 241.367 385.586C240.898 385.785 240.348 386.078 239.715 386.465C239.094 386.84 238.408 387.379 237.658 388.082L237.061 396.801L241.016 396.607ZM294.611 393.232C294.611 394.346 294.359 395.365 293.855 396.291C293.363 397.217 292.625 398.014 291.641 398.682C290.668 399.35 289.449 399.865 287.984 400.229C286.531 400.604 284.838 400.791 282.904 400.791C281.533 400.791 280.133 400.779 278.703 400.756C277.285 400.744 275.867 400.697 274.449 400.615C273.043 400.533 271.654 400.404 270.283 400.229C268.924 400.064 267.611 399.83 266.346 399.525L268.191 393.268C268.766 393.49 269.34 393.684 269.914 393.848C270.488 394.012 271.062 394.164 271.637 394.305L270.775 380.664L267.066 381.42L266.346 376.059C267.201 375.801 268.062 375.578 268.93 375.391C269.809 375.191 270.67 375.021 271.514 374.881C272.357 374.74 273.172 374.623 273.957 374.529C274.754 374.424 275.498 374.336 276.189 374.266C277.807 374.113 279.365 374.025 280.865 374.002C282.764 374.002 284.533 374.16 286.174 374.477C287.826 374.793 289.25 375.268 290.445 375.9C291.652 376.521 292.584 377.295 293.24 378.221C293.896 379.146 294.184 380.213 294.102 381.42C294.031 382.475 293.668 383.465 293.012 384.391C292.367 385.316 291.424 386.137 290.182 386.852C290.732 387.086 291.219 387.361 291.641 387.678C292.062 387.982 292.426 388.311 292.73 388.662C293.047 389.002 293.311 389.354 293.521 389.717C293.732 390.068 293.908 390.414 294.049 390.754C294.365 391.551 294.553 392.377 294.611 393.232ZM278.299 389.312C277.854 389.312 277.396 389.312 276.928 389.312C276.471 389.301 275.996 389.277 275.504 389.242L275.205 395.096C276.26 395.283 277.232 395.424 278.123 395.518C279.014 395.6 279.793 395.664 280.461 395.711C281.234 395.758 281.943 395.781 282.588 395.781C283.877 395.781 285.002 395.693 285.963 395.518C286.936 395.33 287.732 395.066 288.354 394.727C288.986 394.387 289.432 393.971 289.689 393.479C289.947 392.986 290.018 392.424 289.9 391.791C289.795 391.217 289.514 390.76 289.057 390.42C288.611 390.068 288.037 389.799 287.334 389.611C286.643 389.424 285.846 389.301 284.943 389.242C284.053 389.184 283.109 389.148 282.113 389.137C281.516 389.207 280.9 389.254 280.268 389.277C279.646 389.301 278.99 389.312 278.299 389.312ZM277.086 386.939C277.637 386.939 278.299 386.928 279.072 386.904C279.857 386.881 280.666 386.816 281.498 386.711C282.33 386.594 283.145 386.43 283.941 386.219C284.738 386.008 285.43 385.715 286.016 385.34C286.613 384.965 287.064 384.502 287.369 383.951C287.686 383.389 287.773 382.703 287.633 381.895C287.574 381.566 287.416 381.232 287.158 380.893C286.9 380.541 286.525 380.225 286.033 379.943C285.553 379.662 284.943 379.434 284.205 379.258C283.479 379.07 282.617 378.977 281.621 378.977C280.613 378.977 279.67 379.029 278.791 379.135C277.912 379.229 276.969 379.369 275.961 379.557L275.609 386.904C275.844 386.928 276.084 386.939 276.33 386.939C276.576 386.939 276.828 386.939 277.086 386.939ZM318.289 397.979L317.393 401.23L308.656 400.58C308.68 400.404 308.709 400.211 308.744 400C308.779 399.789 308.814 399.59 308.85 399.402C308.896 399.191 308.938 398.98 308.973 398.77C307.953 399.332 306.922 399.73 305.879 399.965C304.836 400.199 303.816 400.316 302.82 400.316C302.094 400.316 301.338 400.252 300.553 400.123C299.768 399.994 299.047 399.771 298.391 399.455C297.746 399.127 297.213 398.699 296.791 398.172C296.369 397.633 296.158 396.959 296.158 396.15C296.158 395.295 296.352 394.557 296.738 393.936C297.125 393.314 297.635 392.787 298.268 392.354C298.9 391.908 299.615 391.551 300.412 391.281C301.221 391.012 302.035 390.801 302.855 390.648C303.688 390.484 304.496 390.379 305.281 390.332C306.066 390.273 306.758 390.244 307.355 390.244C307.988 390.244 308.557 390.262 309.061 390.297C309.564 390.32 310.016 390.361 310.414 390.42C310.555 389.564 310.625 388.75 310.625 387.977C310.625 387.414 310.549 386.904 310.396 386.447C310.256 385.99 310.004 385.609 309.641 385.305C309.289 385 308.814 384.771 308.217 384.619C307.631 384.467 306.898 384.408 306.02 384.443C305.434 384.502 304.895 384.666 304.402 384.936C304.191 385.053 303.975 385.199 303.752 385.375C303.541 385.551 303.336 385.762 303.137 386.008C302.949 386.254 302.779 386.547 302.627 386.887C302.475 387.215 302.357 387.59 302.275 388.012L296.598 388.293C296.68 387.484 296.885 386.77 297.213 386.148C297.541 385.516 297.939 384.971 298.408 384.514C298.889 384.045 299.416 383.646 299.99 383.318C300.564 382.99 301.145 382.715 301.73 382.492C303.113 381.988 304.654 381.678 306.354 381.561C307.877 381.537 309.166 381.684 310.221 382C311.287 382.305 312.166 382.721 312.857 383.248C313.549 383.764 314.088 384.35 314.475 385.006C314.861 385.662 315.143 386.318 315.318 386.975C315.494 387.619 315.594 388.234 315.617 388.82C315.641 389.395 315.646 389.869 315.635 390.244C315.6 390.701 315.518 391.275 315.389 391.967C315.283 392.564 315.125 393.314 314.914 394.217C314.715 395.119 314.439 396.197 314.088 397.451L318.289 397.979ZM310.01 392.793C309.74 392.77 309.447 392.752 309.131 392.74C308.814 392.729 308.486 392.723 308.146 392.723C307.854 392.723 307.49 392.734 307.057 392.758C306.635 392.781 306.189 392.828 305.721 392.898C305.252 392.957 304.783 393.045 304.314 393.162C303.846 393.279 303.424 393.432 303.049 393.619C302.686 393.807 302.387 394.035 302.152 394.305C301.918 394.574 301.801 394.891 301.801 395.254C301.801 395.535 301.883 395.805 302.047 396.062C302.223 396.309 302.457 396.52 302.75 396.695C303.043 396.871 303.383 397 303.77 397.082C304.168 397.152 304.584 397.152 305.018 397.082C305.896 396.918 306.723 396.719 307.496 396.484C308.281 396.238 308.955 396.004 309.518 395.781C309.611 395.289 309.699 394.791 309.781 394.287C309.863 393.783 309.939 393.285 310.01 392.793ZM331.543 396.607L331.227 400.404L319.15 400.316V397.117L322.789 396.977L322.543 385.92L318.799 386.025V382.826L328.66 381.561L328.414 384.918C329.27 384.25 330.113 383.734 330.945 383.371C331.789 382.996 332.545 382.709 333.213 382.51C333.998 382.287 334.748 382.141 335.463 382.07C336.623 382.07 337.607 382.229 338.416 382.545C339.236 382.85 339.898 383.289 340.402 383.863C340.918 384.426 341.293 385.105 341.527 385.902C341.762 386.699 341.879 387.584 341.879 388.557C341.879 388.967 341.873 389.33 341.861 389.646C341.85 389.963 341.826 390.273 341.791 390.578C341.768 390.871 341.732 391.182 341.686 391.51C341.65 391.826 341.604 392.207 341.545 392.652C341.486 393.098 341.416 393.625 341.334 394.234C341.264 394.832 341.182 395.553 341.088 396.396L344.832 396.186L344.322 400.404L334.918 400.035C335.059 398.664 335.182 397.486 335.287 396.502C335.393 395.518 335.486 394.68 335.568 393.988C335.65 393.285 335.715 392.699 335.762 392.23C335.809 391.75 335.85 391.334 335.885 390.982C335.92 390.619 335.943 390.291 335.955 389.998C335.967 389.705 335.973 389.389 335.973 389.049C335.973 388.521 335.932 388.029 335.85 387.572C335.768 387.104 335.621 386.693 335.41 386.342C335.211 385.99 334.941 385.715 334.602 385.516C334.273 385.305 333.863 385.188 333.371 385.164C332.926 385.223 332.434 385.363 331.895 385.586C331.426 385.785 330.875 386.078 330.242 386.465C329.621 386.84 328.936 387.379 328.186 388.082L327.588 396.801L331.543 396.607ZM369.951 400.246H362.111L355.08 392.037L354.289 392.547L354.043 396.941L357.137 396.836V400.246H345.359V397.188L348.611 397.082L348.928 378.186L345.148 378.01V374.951L355.379 374.652L354.518 388.873L361.057 383.406L368.545 382.545L368.053 386.676H363.324L359.439 389.242L366.471 396.836L369.951 396.221V400.246ZM408.254 374.195L404.65 383.002C403.326 382.369 402.061 381.889 400.854 381.561C399.658 381.221 398.604 380.975 397.689 380.822C396.611 380.646 395.609 380.559 394.684 380.559C393.312 380.582 392.152 380.688 391.203 380.875C390.254 381.051 389.492 381.297 388.918 381.613C388.355 381.918 387.963 382.27 387.74 382.668C387.529 383.066 387.477 383.494 387.582 383.951C387.699 384.467 387.975 384.877 388.408 385.182C388.842 385.475 389.422 385.697 390.148 385.85C390.875 385.99 391.736 386.084 392.732 386.131C393.74 386.178 394.871 386.207 396.125 386.219C396.781 386.23 397.508 386.254 398.305 386.289C399.113 386.324 399.928 386.418 400.748 386.57C401.58 386.711 402.383 386.928 403.156 387.221C403.93 387.514 404.615 387.924 405.213 388.451C405.822 388.979 406.309 389.641 406.672 390.438C407.035 391.234 407.217 392.213 407.217 393.373C407.217 394.428 407.064 395.342 406.76 396.115C406.455 396.889 406.045 397.551 405.529 398.102C405.014 398.641 404.404 399.086 403.701 399.438C403.01 399.777 402.271 400.047 401.486 400.246C400.701 400.445 399.893 400.58 399.061 400.65C398.229 400.721 397.42 400.756 396.635 400.756C395.639 400.756 394.684 400.709 393.77 400.615C392.867 400.533 391.982 400.41 391.115 400.246C390.248 400.082 389.381 399.889 388.514 399.666C387.658 399.432 386.785 399.174 385.895 398.893L384.857 401.986L382.379 401.266L384.646 392.582C385.701 393.039 386.744 393.449 387.775 393.812C388.818 394.176 389.861 394.486 390.904 394.744C391.959 394.99 393.02 395.178 394.086 395.307C395.152 395.436 396.242 395.5 397.355 395.5C398.445 395.5 399.377 395.436 400.15 395.307C400.924 395.178 401.551 394.984 402.031 394.727C402.523 394.469 402.881 394.146 403.104 393.76C403.326 393.373 403.438 392.922 403.438 392.406C403.438 391.762 403.273 391.252 402.945 390.877C402.617 390.502 402.119 390.215 401.451 390.016C400.795 389.816 399.969 389.682 398.973 389.611C397.988 389.541 396.834 389.488 395.51 389.453C394.584 389.43 393.611 389.395 392.592 389.348C391.572 389.301 390.57 389.201 389.586 389.049C388.602 388.896 387.664 388.674 386.773 388.381C385.883 388.088 385.098 387.684 384.418 387.168C383.75 386.652 383.217 386.008 382.818 385.234C382.42 384.461 382.221 383.518 382.221 382.404C382.221 381.408 382.379 380.512 382.695 379.715C383.023 378.906 383.48 378.197 384.066 377.588C384.652 376.967 385.344 376.439 386.141 376.006C386.949 375.561 387.834 375.203 388.795 374.934C389.768 374.652 390.793 374.453 391.871 374.336C392.961 374.219 394.08 374.172 395.229 374.195C396.4 374.254 397.561 374.371 398.709 374.547C399.189 374.617 399.693 374.711 400.221 374.828C400.748 374.934 401.27 375.068 401.785 375.232C402.301 375.385 402.799 375.566 403.279 375.777C403.76 375.977 404.205 376.205 404.615 376.463L405.371 373.035L408.254 374.195ZM430.174 393.988C429.729 395.148 429.107 396.156 428.311 397.012C427.525 397.855 426.635 398.559 425.639 399.121C424.643 399.672 423.588 400.082 422.475 400.352C421.361 400.621 420.266 400.756 419.188 400.756C417.688 400.756 416.352 400.521 415.18 400.053C414.008 399.584 413.012 398.951 412.191 398.154C411.371 397.357 410.727 396.426 410.258 395.359C409.801 394.281 409.537 393.139 409.467 391.932C409.467 390.092 409.771 388.521 410.381 387.221C411.002 385.908 411.84 384.842 412.895 384.021C413.961 383.201 415.203 382.604 416.621 382.229C418.039 381.842 419.545 381.648 421.139 381.648C421.725 381.648 422.328 381.689 422.949 381.771C423.582 381.854 424.197 382 424.795 382.211C425.393 382.422 425.961 382.715 426.5 383.09C427.051 383.453 427.543 383.928 427.977 384.514C428.422 385.088 428.797 385.779 429.102 386.588C429.406 387.396 429.617 388.352 429.734 389.453L415.303 392.037C415.396 392.846 415.561 393.637 415.795 394.41C416.041 395.184 416.369 395.869 416.779 396.467C417.189 397.053 417.693 397.521 418.291 397.873C418.9 398.213 419.621 398.371 420.453 398.348C421.355 398.242 422.152 397.973 422.844 397.539C423.137 397.352 423.418 397.123 423.688 396.854C423.957 396.572 424.191 396.238 424.391 395.852C424.59 395.465 424.736 395.014 424.83 394.498C424.924 393.982 424.941 393.391 424.883 392.723L430.174 393.988ZM423.512 388.328C423.465 387.777 423.365 387.297 423.213 386.887C423.061 386.477 422.867 386.125 422.633 385.832C422.41 385.539 422.158 385.299 421.877 385.111C421.607 384.912 421.332 384.754 421.051 384.637C420.395 384.367 419.656 384.244 418.836 384.268C418.062 384.361 417.436 384.584 416.955 384.936C416.475 385.275 416.1 385.703 415.83 386.219C415.572 386.723 415.396 387.285 415.303 387.906C415.209 388.527 415.162 389.16 415.162 389.805L423.512 388.328ZM446.1 395.975V398.928L432.564 400.65L432.055 396.15L436.555 396.115L436.766 386.359L431.299 385.955V382.967L442.672 381.965L442.092 385.885C442.35 385.615 442.689 385.305 443.111 384.953C443.533 384.59 443.996 384.227 444.5 383.863C445.016 383.488 445.561 383.113 446.135 382.738C446.721 382.363 447.307 382.023 447.893 381.719C448.479 381.402 449.053 381.133 449.615 380.91C450.189 380.676 450.717 380.512 451.197 380.418L451.672 386.254C449.984 386.254 448.531 386.4 447.312 386.693C446.105 386.986 445.098 387.309 444.289 387.66C443.352 388.07 442.561 388.533 441.916 389.049L440.686 396.045L446.1 395.975ZM476.932 382.141L476.686 385.34L473.012 385.533L468.002 399.93L460.812 400.404L456.77 385.27L452.023 385.885L451.76 382.475L460.689 382.352L465.945 396.766L468.898 385.709L466.701 385.779V382.246L476.932 382.141ZM492.365 396.01L491.785 400.51L478.672 400.141L478.109 396.941L483.436 396.607L483.4 386.57L477.916 386.395V383.582L488.973 382.861L487.637 396.326L492.365 396.01ZM488.973 378.73C488.973 379.012 488.885 379.281 488.709 379.539C488.545 379.785 488.316 380.002 488.023 380.189C487.73 380.377 487.385 380.529 486.986 380.646C486.6 380.752 486.184 380.805 485.738 380.805C485.281 380.805 484.854 380.752 484.455 380.646C484.068 380.529 483.729 380.377 483.436 380.189C483.143 380.002 482.908 379.785 482.732 379.539C482.568 379.281 482.486 379.012 482.486 378.73C482.486 378.438 482.568 378.162 482.732 377.904C482.908 377.635 483.143 377.406 483.436 377.219C483.729 377.031 484.068 376.885 484.455 376.779C484.854 376.662 485.281 376.604 485.738 376.604C486.184 376.604 486.6 376.662 486.986 376.779C487.385 376.885 487.73 377.031 488.023 377.219C488.316 377.406 488.545 377.635 488.709 377.904C488.885 378.162 488.973 378.438 488.973 378.73ZM513.002 396.695C512.463 397.387 511.889 397.973 511.279 398.453C510.67 398.922 510.049 399.314 509.416 399.631C508.795 399.936 508.18 400.17 507.57 400.334C506.961 400.51 506.393 400.633 505.865 400.703C505.338 400.785 504.863 400.832 504.441 400.844C504.02 400.855 503.686 400.861 503.439 400.861C502.514 400.861 501.611 400.756 500.732 400.545C499.854 400.346 499.021 400.053 498.236 399.666C497.463 399.279 496.76 398.799 496.127 398.225C495.494 397.65 494.955 397 494.51 396.273C494.076 395.547 493.754 394.744 493.543 393.865C493.332 392.975 493.268 392.02 493.35 391C493.479 389.348 493.854 387.93 494.475 386.746C495.107 385.551 495.893 384.572 496.83 383.811C497.779 383.037 498.834 382.469 499.994 382.105C501.166 381.742 502.35 381.561 503.545 381.561C504.084 381.584 504.652 381.66 505.25 381.789C505.754 381.906 506.322 382.082 506.955 382.316C507.588 382.551 508.227 382.879 508.871 383.301L509.486 380.312L513.758 381.139L510.805 389.014L507.816 388.662L508.326 386.096C507.893 385.756 507.477 385.498 507.078 385.322C506.691 385.135 506.346 384.994 506.041 384.9C505.689 384.795 505.361 384.73 505.057 384.707C504.072 384.707 503.205 384.865 502.455 385.182C501.717 385.498 501.09 385.938 500.574 386.5C500.07 387.051 499.689 387.713 499.432 388.486C499.174 389.248 499.045 390.086 499.045 391C499.045 391.996 499.156 392.916 499.379 393.76C499.613 394.604 499.977 395.336 500.469 395.957C500.961 396.566 501.582 397.047 502.332 397.398C503.094 397.738 504.002 397.908 505.057 397.908C505.725 397.861 506.369 397.674 506.99 397.346C507.248 397.205 507.518 397.029 507.799 396.818C508.08 396.596 508.355 396.332 508.625 396.027C508.895 395.711 509.152 395.348 509.398 394.938C509.645 394.516 509.861 394.029 510.049 393.479L513.002 396.695ZM535.221 393.988C534.775 395.148 534.154 396.156 533.357 397.012C532.572 397.855 531.682 398.559 530.686 399.121C529.689 399.672 528.635 400.082 527.521 400.352C526.408 400.621 525.312 400.756 524.234 400.756C522.734 400.756 521.398 400.521 520.227 400.053C519.055 399.584 518.059 398.951 517.238 398.154C516.418 397.357 515.773 396.426 515.305 395.359C514.848 394.281 514.584 393.139 514.514 391.932C514.514 390.092 514.818 388.521 515.428 387.221C516.049 385.908 516.887 384.842 517.941 384.021C519.008 383.201 520.25 382.604 521.668 382.229C523.086 381.842 524.592 381.648 526.186 381.648C526.771 381.648 527.375 381.689 527.996 381.771C528.629 381.854 529.244 382 529.842 382.211C530.439 382.422 531.008 382.715 531.547 383.09C532.098 383.453 532.59 383.928 533.023 384.514C533.469 385.088 533.844 385.779 534.148 386.588C534.453 387.396 534.664 388.352 534.781 389.453L520.35 392.037C520.443 392.846 520.607 393.637 520.842 394.41C521.088 395.184 521.416 395.869 521.826 396.467C522.236 397.053 522.74 397.521 523.338 397.873C523.947 398.213 524.668 398.371 525.5 398.348C526.402 398.242 527.199 397.973 527.891 397.539C528.184 397.352 528.465 397.123 528.734 396.854C529.004 396.572 529.238 396.238 529.438 395.852C529.637 395.465 529.783 395.014 529.877 394.498C529.971 393.982 529.988 393.391 529.93 392.723L535.221 393.988ZM528.559 388.328C528.512 387.777 528.412 387.297 528.26 386.887C528.107 386.477 527.914 386.125 527.68 385.832C527.457 385.539 527.205 385.299 526.924 385.111C526.654 384.912 526.379 384.754 526.098 384.637C525.441 384.367 524.703 384.244 523.883 384.268C523.109 384.361 522.482 384.584 522.002 384.936C521.521 385.275 521.146 385.703 520.877 386.219C520.619 386.723 520.443 387.285 520.35 387.906C520.256 388.527 520.209 389.16 520.209 389.805L528.559 388.328Z" fill="white"/>
<rect x="72" y="300" width="416" height="19" fill="white"/>
<rect x="48" y="328" width="475" height="29" fill="white"/>
<path d="M52 258.195C50.8281 257.414 50.2422 256.568 50.2422 255.656C50.112 254.745 50.3073 253.833 50.8281 252.922C51.349 251.88 52.1302 250.839 53.1719 249.797C54.2135 248.885 55.4505 246.542 56.8828 242.766C58.3151 239.12 59.8125 234.693 61.375 229.484C63.0677 224.146 64.6953 218.352 66.2578 212.102C67.9505 205.852 69.513 199.732 70.9453 193.742C72.3776 187.753 73.6146 182.219 74.6562 177.141C75.6979 172.062 76.4792 168.026 77 165.031C77.651 161.385 78.3672 157.414 79.1484 153.117C79.7995 149.341 80.5156 144.979 81.2969 140.031C82.0781 134.953 82.7943 129.354 83.4453 123.234L99.0703 116.203C101.284 115.161 102.846 115.422 103.758 116.984C104.669 118.417 104.669 121.477 103.758 126.164C103.367 128.508 102.651 132.349 101.609 137.688C100.568 142.896 99.3307 148.69 97.8984 155.07C96.5964 161.32 95.1641 167.766 93.6016 174.406C92.1693 180.917 90.737 186.711 89.3047 191.789C88.0026 196.607 86.5052 202.141 84.8125 208.391C81.8177 219.068 77.651 233.651 72.3125 252.141C74.1354 255.266 77.5208 256.828 82.4688 256.828C87.9375 256.828 94.2526 254.745 101.414 250.578C108.706 246.411 115.737 240.161 122.508 231.828C129.279 223.495 135.203 213.078 140.281 200.578C145.49 187.948 148.745 173.234 150.047 156.438C150.698 147.323 150.242 139.315 148.68 132.414C147.117 125.513 144.708 119.719 141.453 115.031C138.328 110.344 134.422 106.828 129.734 104.484C125.177 102.141 120.099 100.969 114.5 100.969C101.349 100.969 87.7422 106.438 73.6797 117.375L72.7031 101.164C76.0885 97.388 79.9297 94.5234 84.2266 92.5703C88.6536 90.487 92.7552 88.9245 96.5312 87.8828C100.958 86.7109 105.451 86.0599 110.008 85.9297C118.341 85.9297 126.349 87.5573 134.031 90.8125C141.844 93.9375 148.549 98.7552 154.148 105.266C159.878 111.776 164.24 119.979 167.234 129.875C170.229 139.641 171.271 151.099 170.359 164.25C169.839 171.802 168.276 179.68 165.672 187.883C163.198 195.956 159.878 203.898 155.711 211.711C151.674 219.523 146.857 226.945 141.258 233.977C135.659 241.008 129.539 247.128 122.898 252.336C116.258 257.674 109.161 261.841 101.609 264.836C94.0573 267.961 86.2448 269.523 78.1719 269.523C75.6979 269.393 73.0286 268.938 70.1641 268.156C67.6901 267.505 64.8906 266.398 61.7656 264.836C58.6406 263.273 55.3854 261.06 52 258.195Z" fill="white"/>
<path d="M505.75 214.641C504.969 223.365 502.365 231.177 497.938 238.078C493.51 244.979 487.846 250.773 480.945 255.461C474.174 260.279 466.492 263.924 457.898 266.398C449.305 268.872 440.451 270.109 431.336 270.109C427.951 270.109 424.76 269.849 421.766 269.328C418.901 268.938 416.297 268.417 413.953 267.766C411.609 267.115 409.591 266.464 407.898 265.812C406.336 265.292 405.229 264.836 404.578 264.445C403.406 263.794 402.43 262.948 401.648 261.906C400.997 260.995 400.607 259.628 400.477 257.805C400.346 256.763 400.281 255.917 400.281 255.266C400.281 254.745 400.346 254.159 400.477 253.508C400.607 252.857 400.867 251.945 401.258 250.773C401.518 249.732 401.909 248.234 402.43 246.281C402.69 245.109 403.667 241.398 405.359 235.148C407.182 229.029 409.331 221.542 411.805 212.688C414.279 203.703 416.948 194.003 419.812 183.586C422.807 173.169 425.672 163.078 428.406 153.312C431.141 143.547 433.615 134.758 435.828 126.945C438.042 119.003 439.669 113.143 440.711 109.367C438.888 110.669 437.065 112.036 435.242 113.469C433.549 114.901 431.792 116.464 429.969 118.156C428.016 119.979 426.062 120.63 424.109 120.109C422.286 119.458 420.984 117.831 420.203 115.227C419.943 113.924 419.747 112.557 419.617 111.125C419.487 109.953 419.487 108.651 419.617 107.219C419.878 105.656 420.398 104.159 421.18 102.727C425.477 100.122 429.643 97.9089 433.68 96.0859C437.846 94.263 441.818 92.6354 445.594 91.2031C446.375 88.9896 447.221 87.2969 448.133 86.125C449.174 84.9531 450.216 84.1719 451.258 83.7812C452.299 83.3906 453.406 83.2604 454.578 83.3906C455.75 83.5208 456.987 83.7161 458.289 83.9766C461.154 84.6276 463.042 85.5391 463.953 86.7109C465.776 86.4505 467.534 86.2552 469.227 86.125C470.919 85.9948 472.677 85.9297 474.5 85.9297C482.052 85.9297 488.628 86.9062 494.227 88.8594C499.826 90.8125 504.383 93.4818 507.898 96.8672C511.544 100.122 514.148 103.964 515.711 108.391C517.273 112.818 517.859 117.505 517.469 122.453C517.078 126.75 515.906 131.242 513.953 135.93C512.13 140.487 509.656 145.044 506.531 149.602C503.406 154.029 499.76 158.391 495.594 162.688C491.427 166.854 486.805 170.695 481.727 174.211C485.763 176.555 489.344 179.289 492.469 182.414C495.594 185.539 498.198 188.924 500.281 192.57C502.365 196.216 503.862 199.927 504.773 203.703C505.685 207.479 506.01 211.125 505.75 214.641ZM441.102 166.789C440.841 168.091 440.516 169.393 440.125 170.695C439.865 171.997 439.539 173.365 439.148 174.797C440.711 173.104 443.315 171.542 446.961 170.109C450.737 168.677 454.318 167.961 457.703 167.961C459.526 167.961 461.284 168.091 462.977 168.352C464.669 168.482 466.297 168.677 467.859 168.938C471.505 166.594 475.021 163.599 478.406 159.953C481.792 156.177 484.721 152.206 487.195 148.039C489.799 143.742 491.883 139.38 493.445 134.953C495.138 130.526 496.18 126.424 496.57 122.648C497.352 113.664 495.789 107.023 491.883 102.727C488.107 98.2995 482.703 96.0859 475.672 96.0859C470.984 96.0859 466.102 96.9323 461.023 98.625C459.982 102.01 458.68 106.242 457.117 111.32C455.555 116.268 453.862 121.737 452.039 127.727C450.346 133.716 448.523 140.031 446.57 146.672C444.617 153.312 442.794 160.018 441.102 166.789ZM437.781 179.68C435.958 186.711 434.135 194.328 432.312 202.531C430.62 209.562 428.797 217.766 426.844 227.141C424.891 236.385 422.807 246.281 420.594 256.828C421.375 257.479 422.417 257.935 423.719 258.195C425.021 258.456 426.323 258.716 427.625 258.977C429.057 259.237 430.62 259.367 432.312 259.367C438.172 259.367 444.096 258.13 450.086 255.656C456.206 253.312 461.805 249.927 466.883 245.5C471.961 241.073 476.193 235.734 479.578 229.484C483.094 223.104 485.177 216.008 485.828 208.195C486.089 204.68 485.828 201.555 485.047 198.82C484.396 195.956 483.354 193.417 481.922 191.203C480.62 188.859 479.057 186.841 477.234 185.148C475.542 183.326 473.719 181.763 471.766 180.461C465.776 183.716 459.201 186.451 452.039 188.664C449.695 189.315 447.677 189.445 445.984 189.055C444.292 188.534 442.859 187.818 441.688 186.906C440.516 185.865 439.604 184.693 438.953 183.391C438.302 182.089 437.911 180.852 437.781 179.68Z" fill="white"/>
<path d="M320.3 110.875H353.644L367.125 85H225.347L211.875 110.875H254.681C274.147 110.875 287.102 118.111 294.261 128.125H225.347L211.875 154H300.531C298.237 171.862 283.497 188.5 257.907 188.5H220.5V214.375C240.519 214.375 234.162 209.605 283.67 292H324L272.569 214.375C294.175 210.96 328.597 193.546 332.254 154H353.644L367.125 128.125H329.649C327.597 122.027 324.457 116.197 320.3 110.875V110.875Z" fill="white"/>
<path fill-rule="evenodd" clip-rule="evenodd" d="M526.157 73.5L410 37.6516V73.5H526.157ZM288 0L395 33.0223V73.5H185V31.7879L288 0ZM170 36.4172L49.843 73.5H170V36.4172ZM288.5 66C303.688 66 316 53.6878 316 38.5C316 23.3122 303.688 11 288.5 11C273.312 11 261 23.3122 261 38.5C261 53.6878 273.312 66 288.5 66Z" fill="white"/>
</svg>
